<mxfile host="app.diagrams.net" modified="2023-01-20T11:34:05.266Z" agent="5.0 (Windows NT 10.0; Win64; x64) AppleWebKit/537.36 (KHTML, like Gecko) Chrome/109.0.0.0 Safari/537.36" etag="SapYMsqw9QrYu1yhVx1R" version="20.8.8" type="github">
  <diagram name="Page-1" id="c4acf3e9-155e-7222-9cf6-157b1a14988f">
    <mxGraphModel dx="1884" dy="448" grid="1" gridSize="10" guides="1" tooltips="1" connect="1" arrows="1" fold="1" page="1" pageScale="1" pageWidth="850" pageHeight="1100" background="none" math="0" shadow="0">
      <root>
        <mxCell id="0" />
        <mxCell id="1" parent="0" />
        <mxCell id="zCFs2bRSD1R6RlgsWCKW-6" value="" style="edgeStyle=orthogonalEdgeStyle;rounded=0;orthogonalLoop=1;jettySize=auto;html=1;" edge="1" parent="1" source="zCFs2bRSD1R6RlgsWCKW-3" target="zCFs2bRSD1R6RlgsWCKW-5">
          <mxGeometry relative="1" as="geometry" />
        </mxCell>
        <mxCell id="zCFs2bRSD1R6RlgsWCKW-3" value="" style="shape=image;html=1;verticalAlign=top;verticalLabelPosition=bottom;labelBackgroundColor=#ffffff;imageAspect=0;aspect=fixed;image=https://cdn4.iconfinder.com/data/icons/transportation-and-vehicle/128/Transportation_And_Vehicle_3-10-128.png" vertex="1" parent="1">
          <mxGeometry x="30" y="50" width="80" height="80" as="geometry" />
        </mxCell>
        <mxCell id="zCFs2bRSD1R6RlgsWCKW-11" value="" style="edgeStyle=orthogonalEdgeStyle;rounded=0;orthogonalLoop=1;jettySize=auto;html=1;" edge="1" parent="1" source="zCFs2bRSD1R6RlgsWCKW-5" target="zCFs2bRSD1R6RlgsWCKW-9">
          <mxGeometry relative="1" as="geometry" />
        </mxCell>
        <mxCell id="zCFs2bRSD1R6RlgsWCKW-5" value="Gate" style="whiteSpace=wrap;html=1;" vertex="1" parent="1">
          <mxGeometry x="150" y="60" width="50" height="60" as="geometry" />
        </mxCell>
        <mxCell id="zCFs2bRSD1R6RlgsWCKW-7" value="Ticket" style="text;html=1;align=center;verticalAlign=middle;resizable=0;points=[];autosize=1;strokeColor=none;fillColor=none;" vertex="1" parent="1">
          <mxGeometry x="200" y="60" width="60" height="30" as="geometry" />
        </mxCell>
        <mxCell id="zCFs2bRSD1R6RlgsWCKW-16" value="" style="edgeStyle=orthogonalEdgeStyle;rounded=0;orthogonalLoop=1;jettySize=auto;html=1;" edge="1" parent="1" source="zCFs2bRSD1R6RlgsWCKW-9" target="zCFs2bRSD1R6RlgsWCKW-12">
          <mxGeometry relative="1" as="geometry" />
        </mxCell>
        <mxCell id="zCFs2bRSD1R6RlgsWCKW-9" value="Parking Slot&amp;nbsp;" style="whiteSpace=wrap;html=1;" vertex="1" parent="1">
          <mxGeometry x="260" y="60" width="50" height="60" as="geometry" />
        </mxCell>
        <mxCell id="zCFs2bRSD1R6RlgsWCKW-17" value="" style="edgeStyle=orthogonalEdgeStyle;rounded=0;orthogonalLoop=1;jettySize=auto;html=1;" edge="1" parent="1" source="zCFs2bRSD1R6RlgsWCKW-12" target="zCFs2bRSD1R6RlgsWCKW-14">
          <mxGeometry relative="1" as="geometry" />
        </mxCell>
        <mxCell id="zCFs2bRSD1R6RlgsWCKW-12" value="Exit&amp;nbsp;" style="whiteSpace=wrap;html=1;" vertex="1" parent="1">
          <mxGeometry x="360" y="60" width="40" height="60" as="geometry" />
        </mxCell>
        <mxCell id="zCFs2bRSD1R6RlgsWCKW-14" value="" style="shape=image;html=1;verticalAlign=top;verticalLabelPosition=bottom;labelBackgroundColor=#ffffff;imageAspect=0;aspect=fixed;image=https://cdn4.iconfinder.com/data/icons/transportation-and-vehicle/128/Transportation_And_Vehicle_3-10-128.png" vertex="1" parent="1">
          <mxGeometry x="460" y="50" width="80" height="80" as="geometry" />
        </mxCell>
        <mxCell id="zCFs2bRSD1R6RlgsWCKW-18" value="Payment" style="text;html=1;align=center;verticalAlign=middle;resizable=0;points=[];autosize=1;strokeColor=none;fillColor=none;" vertex="1" parent="1">
          <mxGeometry x="401" y="60" width="70" height="30" as="geometry" />
        </mxCell>
        <mxCell id="zCFs2bRSD1R6RlgsWCKW-19" value="&lt;h1&gt;&lt;font style=&quot;font-size: 14px;&quot;&gt;Requirement Clarifications&lt;/font&gt;&lt;/h1&gt;&lt;div&gt;&lt;font style=&quot;font-size: 14px;&quot;&gt;How many Entrances ?&lt;/font&gt;&lt;/div&gt;&lt;div&gt;&lt;font style=&quot;font-size: 14px;&quot;&gt;Assume -&amp;nbsp;&amp;nbsp;&lt;/font&gt;&lt;span style=&quot;font-size: 14px; background-color: initial;&quot;&gt;1 Entrance&amp;nbsp;&lt;/span&gt;&lt;span style=&quot;font-size: 14px; background-color: initial;&quot;&gt;1 Exit&lt;/span&gt;&lt;/div&gt;&lt;div&gt;&lt;font style=&quot;font-size: 14px;&quot;&gt;&lt;br&gt;&lt;/font&gt;&lt;/div&gt;&lt;div&gt;&lt;font style=&quot;font-size: 14px;&quot;&gt;Different Parking Slot -&amp;nbsp;&lt;/font&gt;&lt;/div&gt;&lt;div&gt;&lt;font style=&quot;font-size: 14px;&quot;&gt;&amp;nbsp; &amp;nbsp;Two , Four Wheeler&amp;nbsp;&lt;/font&gt;&lt;/div&gt;&lt;div&gt;&lt;font style=&quot;font-size: 14px;&quot;&gt;&lt;br&gt;&lt;/font&gt;&lt;/div&gt;&lt;div&gt;&lt;font style=&quot;font-size: 14px;&quot;&gt;Payment -&amp;nbsp;&lt;/font&gt;&lt;/div&gt;&lt;div&gt;&lt;font style=&quot;font-size: 14px;&quot;&gt;&amp;nbsp;Hourly or minute or mix payment&lt;/font&gt;&lt;/div&gt;&lt;div&gt;&lt;font style=&quot;font-size: 14px;&quot;&gt;&lt;br&gt;&lt;/font&gt;&lt;/div&gt;&lt;div&gt;&lt;font style=&quot;font-size: 14px;&quot;&gt;Find the &lt;b&gt;nearest parking&lt;/b&gt; Space from &lt;b&gt;Entrance &lt;/b&gt;??&lt;/font&gt;&lt;/div&gt;&lt;div&gt;&lt;font style=&quot;font-size: 14px;&quot;&gt;&lt;br&gt;&lt;/font&gt;&lt;/div&gt;&lt;div&gt;&lt;font style=&quot;font-size: 14px;&quot;&gt;Parking Floors ??&amp;nbsp; Assume NO&amp;nbsp;&lt;/font&gt;&lt;/div&gt;&lt;div&gt;&lt;font style=&quot;font-size: 14px;&quot;&gt;&lt;br&gt;&lt;/font&gt;&lt;/div&gt;&lt;div&gt;&lt;font style=&quot;font-size: 14px;&quot;&gt;&lt;br&gt;&lt;/font&gt;&lt;/div&gt;" style="text;html=1;strokeColor=none;fillColor=none;spacing=5;spacingTop=-20;whiteSpace=wrap;overflow=hidden;rounded=0;" vertex="1" parent="1">
          <mxGeometry x="560" y="40" width="280" height="280" as="geometry" />
        </mxCell>
        <mxCell id="zCFs2bRSD1R6RlgsWCKW-20" value="&lt;h1&gt;&lt;font style=&quot;font-size: 14px;&quot;&gt;Objects&lt;/font&gt;&lt;/h1&gt;&lt;div&gt;&lt;font style=&quot;font-size: 14px;&quot;&gt;Vehicle - Vehicle Number &amp;amp; Vehicle Type (Two or Four)&lt;/font&gt;&lt;/div&gt;&lt;div&gt;&lt;font style=&quot;font-size: 14px;&quot;&gt;&lt;br&gt;&lt;/font&gt;&lt;/div&gt;&lt;div&gt;&lt;span style=&quot;font-size: 14px; background-color: initial;&quot;&gt;Entrance Gate -&amp;nbsp; Find Parking Space , Update Parking Space ,&amp;nbsp; &amp;nbsp; &amp;nbsp; &amp;nbsp; &lt;span style=&quot;white-space: pre;&quot;&gt;	&lt;/span&gt;&lt;span style=&quot;white-space: pre;&quot;&gt;	&lt;/span&gt;&lt;span style=&quot;white-space: pre;&quot;&gt;	&lt;/span&gt;&amp;nbsp; &amp;nbsp;Generate Ticket&lt;/span&gt;&lt;br&gt;&lt;/div&gt;&lt;div&gt;&lt;span style=&quot;font-size: 14px; background-color: initial;&quot;&gt;&lt;br&gt;&lt;/span&gt;&lt;/div&gt;&lt;div&gt;&lt;font style=&quot;font-size: 14px;&quot;&gt;Ticket -&amp;nbsp; Entry Time , Parking Slot&amp;nbsp;&lt;br&gt;&lt;/font&gt;&lt;/div&gt;&lt;div&gt;&lt;font style=&quot;font-size: 14px;&quot;&gt;&lt;br&gt;&lt;/font&gt;&lt;/div&gt;&lt;div&gt;&lt;font style=&quot;font-size: 14px;&quot;&gt;Parking Slot - Id , Is Empty , Vehicle , Price&lt;/font&gt;&lt;/div&gt;&lt;div&gt;&lt;font style=&quot;font-size: 14px;&quot;&gt;&lt;br&gt;&lt;/font&gt;&lt;/div&gt;&lt;div&gt;&lt;font style=&quot;font-size: 14px;&quot;&gt;Exit Gate - Calculate the Cost , Payment , Update Parking Spot&lt;/font&gt;&lt;/div&gt;&lt;div&gt;&lt;font style=&quot;font-size: 14px;&quot;&gt;&lt;br&gt;&lt;/font&gt;&lt;/div&gt;&lt;div&gt;&lt;font style=&quot;font-size: 14px;&quot;&gt;Payment&lt;/font&gt;&lt;/div&gt;" style="text;html=1;strokeColor=none;fillColor=none;spacing=5;spacingTop=-20;whiteSpace=wrap;overflow=hidden;rounded=0;" vertex="1" parent="1">
          <mxGeometry x="50" y="130" width="420" height="290" as="geometry" />
        </mxCell>
        <mxCell id="zCFs2bRSD1R6RlgsWCKW-21" value="&lt;font style=&quot;&quot;&gt;&lt;span style=&quot;font-size: 24px;&quot;&gt;&lt;b&gt;Design&lt;/b&gt;&lt;/span&gt;&lt;b style=&quot;font-size: 24px;&quot;&gt;&amp;nbsp;Parking Lot&lt;/b&gt;&lt;/font&gt;" style="text;html=1;align=center;verticalAlign=middle;resizable=0;points=[];autosize=1;strokeColor=none;fillColor=none;fontSize=14;" vertex="1" parent="1">
          <mxGeometry x="300" width="240" height="40" as="geometry" />
        </mxCell>
        <mxCell id="zCFs2bRSD1R6RlgsWCKW-23" value="Vehicle" style="text;html=1;align=center;verticalAlign=middle;resizable=0;points=[];autosize=1;strokeColor=none;fillColor=none;rotation=-90;" vertex="1" parent="1">
          <mxGeometry x="-10" y="75" width="60" height="30" as="geometry" />
        </mxCell>
        <mxCell id="zCFs2bRSD1R6RlgsWCKW-37" value="ParkingSpot (abstract)" style="swimlane;fontStyle=1;align=center;verticalAlign=top;childLayout=stackLayout;horizontal=1;startSize=26;horizontalStack=0;resizeParent=1;resizeParentMax=0;resizeLast=0;collapsible=1;marginBottom=0;fontSize=12;" vertex="1" parent="1">
          <mxGeometry x="743.5" y="1070" width="180" height="178" as="geometry">
            <mxRectangle x="390" y="550" width="110" height="30" as="alternateBounds" />
          </mxGeometry>
        </mxCell>
        <mxCell id="zCFs2bRSD1R6RlgsWCKW-38" value="+  SpotId: int&#xa;+  Is Empty: Boolean&#xa;+  Price: int&#xa;-   Vehicle: Vehicle&#xa;" style="text;strokeColor=none;fillColor=none;align=left;verticalAlign=top;spacingLeft=4;spacingRight=4;overflow=hidden;rotatable=0;points=[[0,0.5],[1,0.5]];portConstraint=eastwest;fontSize=12;" vertex="1" parent="zCFs2bRSD1R6RlgsWCKW-37">
          <mxGeometry y="26" width="180" height="84" as="geometry" />
        </mxCell>
        <mxCell id="zCFs2bRSD1R6RlgsWCKW-39" value="" style="line;strokeWidth=1;fillColor=none;align=left;verticalAlign=middle;spacingTop=-1;spacingLeft=3;spacingRight=3;rotatable=0;labelPosition=right;points=[];portConstraint=eastwest;strokeColor=inherit;fontSize=12;" vertex="1" parent="zCFs2bRSD1R6RlgsWCKW-37">
          <mxGeometry y="110" width="180" height="8" as="geometry" />
        </mxCell>
        <mxCell id="zCFs2bRSD1R6RlgsWCKW-40" value="+ Park Vehicle(Vehicle v)&#xa;+ Remove Vehicle();" style="text;strokeColor=none;fillColor=none;align=left;verticalAlign=top;spacingLeft=4;spacingRight=4;overflow=hidden;rotatable=0;points=[[0,0.5],[1,0.5]];portConstraint=eastwest;fontSize=12;" vertex="1" parent="zCFs2bRSD1R6RlgsWCKW-37">
          <mxGeometry y="118" width="180" height="60" as="geometry" />
        </mxCell>
        <mxCell id="zCFs2bRSD1R6RlgsWCKW-42" value="TwoWheelerParkingSpot&amp;nbsp;" style="swimlane;fontStyle=1;align=center;verticalAlign=middle;childLayout=stackLayout;horizontal=1;startSize=29;horizontalStack=0;resizeParent=1;resizeParentMax=0;resizeLast=0;collapsible=0;marginBottom=0;html=1;fontSize=12;" vertex="1" parent="1">
          <mxGeometry x="643.5" y="1408" width="155" height="54" as="geometry" />
        </mxCell>
        <mxCell id="zCFs2bRSD1R6RlgsWCKW-44" value="&amp;nbsp;+ Price : int" style="text;html=1;strokeColor=none;fillColor=none;align=left;verticalAlign=middle;spacingLeft=4;spacingRight=4;overflow=hidden;rotatable=0;points=[[0,0.5],[1,0.5]];portConstraint=eastwest;fontSize=12;" vertex="1" parent="zCFs2bRSD1R6RlgsWCKW-42">
          <mxGeometry y="29" width="155" height="25" as="geometry" />
        </mxCell>
        <mxCell id="zCFs2bRSD1R6RlgsWCKW-45" value="FourWheelerParkingSpot&amp;nbsp;" style="swimlane;fontStyle=1;align=center;verticalAlign=middle;childLayout=stackLayout;horizontal=1;startSize=29;horizontalStack=0;resizeParent=1;resizeParentMax=0;resizeLast=0;collapsible=0;marginBottom=0;html=1;fontSize=12;" vertex="1" parent="1">
          <mxGeometry x="866.5" y="1408" width="160" height="54" as="geometry" />
        </mxCell>
        <mxCell id="zCFs2bRSD1R6RlgsWCKW-47" value="&amp;nbsp;+ Price : int" style="text;html=1;strokeColor=none;fillColor=none;align=left;verticalAlign=middle;spacingLeft=4;spacingRight=4;overflow=hidden;rotatable=0;points=[[0,0.5],[1,0.5]];portConstraint=eastwest;fontSize=12;" vertex="1" parent="zCFs2bRSD1R6RlgsWCKW-45">
          <mxGeometry y="29" width="160" height="25" as="geometry" />
        </mxCell>
        <mxCell id="zCFs2bRSD1R6RlgsWCKW-50" value="Extends" style="endArrow=block;endSize=16;endFill=0;html=1;rounded=0;fontSize=12;entryX=0.316;entryY=1.057;entryDx=0;entryDy=0;entryPerimeter=0;exitX=0.5;exitY=0;exitDx=0;exitDy=0;" edge="1" parent="1" target="zCFs2bRSD1R6RlgsWCKW-40">
          <mxGeometry width="160" relative="1" as="geometry">
            <mxPoint x="716" y="1408" as="sourcePoint" />
            <mxPoint x="783.5" y="1328" as="targetPoint" />
          </mxGeometry>
        </mxCell>
        <mxCell id="zCFs2bRSD1R6RlgsWCKW-51" value="Extends" style="endArrow=block;endSize=16;endFill=0;html=1;rounded=0;fontSize=12;entryX=0.437;entryY=1.089;entryDx=0;entryDy=0;entryPerimeter=0;exitX=0.25;exitY=0;exitDx=0;exitDy=0;" edge="1" parent="1" source="zCFs2bRSD1R6RlgsWCKW-45" target="zCFs2bRSD1R6RlgsWCKW-40">
          <mxGeometry width="160" relative="1" as="geometry">
            <mxPoint x="718.5" y="1418" as="sourcePoint" />
            <mxPoint x="794.1799999999998" y="1290.38" as="targetPoint" />
          </mxGeometry>
        </mxCell>
        <mxCell id="zCFs2bRSD1R6RlgsWCKW-59" value="ParkingSpotManager" style="swimlane;fontStyle=1;align=center;verticalAlign=top;childLayout=stackLayout;horizontal=1;startSize=26;horizontalStack=0;resizeParent=1;resizeParentMax=0;resizeLast=0;collapsible=1;marginBottom=0;fontSize=12;" vertex="1" parent="1">
          <mxGeometry x="123.5" y="1078" width="200" height="170" as="geometry" />
        </mxCell>
        <mxCell id="zCFs2bRSD1R6RlgsWCKW-60" value="+ ParkingSpots : List&lt;ParkingSpot&gt;" style="text;strokeColor=none;fillColor=none;align=left;verticalAlign=top;spacingLeft=4;spacingRight=4;overflow=hidden;rotatable=0;points=[[0,0.5],[1,0.5]];portConstraint=eastwest;fontSize=12;" vertex="1" parent="zCFs2bRSD1R6RlgsWCKW-59">
          <mxGeometry y="26" width="200" height="26" as="geometry" />
        </mxCell>
        <mxCell id="zCFs2bRSD1R6RlgsWCKW-61" value="" style="line;strokeWidth=1;fillColor=none;align=left;verticalAlign=middle;spacingTop=-1;spacingLeft=3;spacingRight=3;rotatable=0;labelPosition=right;points=[];portConstraint=eastwest;strokeColor=inherit;fontSize=12;" vertex="1" parent="zCFs2bRSD1R6RlgsWCKW-59">
          <mxGeometry y="52" width="200" height="8" as="geometry" />
        </mxCell>
        <mxCell id="zCFs2bRSD1R6RlgsWCKW-62" value="+ Find Parking Space ();&#xa;+ Add Parking Space();&#xa;+ Remove Parking Space();&#xa;+ Park Vehicle();&#xa;+ Remove Vehicle" style="text;strokeColor=none;fillColor=none;align=left;verticalAlign=top;spacingLeft=4;spacingRight=4;overflow=hidden;rotatable=0;points=[[0,0.5],[1,0.5]];portConstraint=eastwest;fontSize=12;" vertex="1" parent="zCFs2bRSD1R6RlgsWCKW-59">
          <mxGeometry y="60" width="200" height="110" as="geometry" />
        </mxCell>
        <mxCell id="zCFs2bRSD1R6RlgsWCKW-63" value="TwoWheelerParkingSpotManager&amp;nbsp;&amp;nbsp;" style="swimlane;fontStyle=1;align=center;verticalAlign=middle;childLayout=stackLayout;horizontal=1;startSize=29;horizontalStack=0;resizeParent=1;resizeParentMax=0;resizeLast=0;collapsible=0;marginBottom=0;html=1;fontSize=12;" vertex="1" parent="1">
          <mxGeometry x="-186.5" y="1402" width="330" height="130" as="geometry" />
        </mxCell>
        <mxCell id="zCFs2bRSD1R6RlgsWCKW-64" value="+ ParkingSpots: List&amp;lt;ParkingSpot&amp;gt;&lt;br&gt;&lt;br&gt;+ Strategy : NearToEntranceParkingStrategy&lt;br&gt;&lt;br&gt;+ Constructor() : Super(ParkingSpots, Parking Strategy)" style="text;html=1;strokeColor=none;fillColor=none;align=left;verticalAlign=middle;spacingLeft=4;spacingRight=4;overflow=hidden;rotatable=0;points=[[0,0.5],[1,0.5]];portConstraint=eastwest;fontSize=12;" vertex="1" parent="zCFs2bRSD1R6RlgsWCKW-63">
          <mxGeometry y="29" width="330" height="101" as="geometry" />
        </mxCell>
        <mxCell id="zCFs2bRSD1R6RlgsWCKW-65" value="FourWheelerParkingSpotManager&amp;nbsp;" style="swimlane;fontStyle=1;align=center;verticalAlign=middle;childLayout=stackLayout;horizontal=1;startSize=29;horizontalStack=0;resizeParent=1;resizeParentMax=0;resizeLast=0;collapsible=0;marginBottom=0;html=1;fontSize=12;" vertex="1" parent="1">
          <mxGeometry x="273.5" y="1402" width="310" height="130" as="geometry" />
        </mxCell>
        <mxCell id="zCFs2bRSD1R6RlgsWCKW-66" value="+ ParkingSpots: List&amp;lt;ParkingSpot&amp;gt;&lt;br&gt;&lt;br&gt;+ Strategy: NearToElevatorParkingStrategy&lt;br&gt;&lt;br&gt;+ Constructor() : Super(ParkingSpots, Parking Strategy)" style="text;html=1;strokeColor=none;fillColor=none;align=left;verticalAlign=middle;spacingLeft=4;spacingRight=4;overflow=hidden;rotatable=0;points=[[0,0.5],[1,0.5]];portConstraint=eastwest;fontSize=12;" vertex="1" parent="zCFs2bRSD1R6RlgsWCKW-65">
          <mxGeometry y="29" width="310" height="101" as="geometry" />
        </mxCell>
        <mxCell id="zCFs2bRSD1R6RlgsWCKW-67" value="Extends" style="endArrow=block;endSize=16;endFill=0;html=1;rounded=0;fontSize=12;entryX=0.379;entryY=1;entryDx=0;entryDy=0;entryPerimeter=0;exitX=0.5;exitY=0;exitDx=0;exitDy=0;" edge="1" parent="1" source="zCFs2bRSD1R6RlgsWCKW-63" target="zCFs2bRSD1R6RlgsWCKW-62">
          <mxGeometry width="160" relative="1" as="geometry">
            <mxPoint x="86.5" y="1396.58" as="sourcePoint" />
            <mxPoint x="170.8800000000001" y="1268" as="targetPoint" />
          </mxGeometry>
        </mxCell>
        <mxCell id="zCFs2bRSD1R6RlgsWCKW-68" value="Extends" style="endArrow=block;endSize=16;endFill=0;html=1;rounded=0;fontSize=12;" edge="1" parent="1">
          <mxGeometry width="160" relative="1" as="geometry">
            <mxPoint x="433.5" y="1398" as="sourcePoint" />
            <mxPoint x="239.5" y="1248" as="targetPoint" />
          </mxGeometry>
        </mxCell>
        <mxCell id="zCFs2bRSD1R6RlgsWCKW-70" value="" style="endArrow=diamondThin;endFill=1;endSize=24;html=1;rounded=0;fontSize=12;entryX=0.009;entryY=0.834;entryDx=0;entryDy=0;exitX=0.998;exitY=0.281;exitDx=0;exitDy=0;exitPerimeter=0;entryPerimeter=0;" edge="1" parent="1" source="zCFs2bRSD1R6RlgsWCKW-62" target="zCFs2bRSD1R6RlgsWCKW-38">
          <mxGeometry width="160" relative="1" as="geometry">
            <mxPoint x="333.5" y="1268" as="sourcePoint" />
            <mxPoint x="493.5" y="1268" as="targetPoint" />
          </mxGeometry>
        </mxCell>
        <mxCell id="zCFs2bRSD1R6RlgsWCKW-72" value="ParkingStrategy" style="swimlane;fontStyle=1;align=center;verticalAlign=top;childLayout=stackLayout;horizontal=1;startSize=26;horizontalStack=0;resizeParent=1;resizeParentMax=0;resizeLast=0;collapsible=1;marginBottom=0;fontSize=12;" vertex="1" parent="1">
          <mxGeometry x="143.5" y="1678" width="160" height="60" as="geometry" />
        </mxCell>
        <mxCell id="zCFs2bRSD1R6RlgsWCKW-74" value="" style="line;strokeWidth=1;fillColor=none;align=left;verticalAlign=middle;spacingTop=-1;spacingLeft=3;spacingRight=3;rotatable=0;labelPosition=right;points=[];portConstraint=eastwest;strokeColor=inherit;fontSize=12;" vertex="1" parent="zCFs2bRSD1R6RlgsWCKW-72">
          <mxGeometry y="26" width="160" height="8" as="geometry" />
        </mxCell>
        <mxCell id="zCFs2bRSD1R6RlgsWCKW-75" value="+ Find Parking Space();" style="text;strokeColor=none;fillColor=none;align=left;verticalAlign=top;spacingLeft=4;spacingRight=4;overflow=hidden;rotatable=0;points=[[0,0.5],[1,0.5]];portConstraint=eastwest;fontSize=12;" vertex="1" parent="zCFs2bRSD1R6RlgsWCKW-72">
          <mxGeometry y="34" width="160" height="26" as="geometry" />
        </mxCell>
        <mxCell id="zCFs2bRSD1R6RlgsWCKW-76" value="NearToEntranceParkingStrategy" style="swimlane;fontStyle=1;align=center;verticalAlign=top;childLayout=stackLayout;horizontal=1;startSize=26;horizontalStack=0;resizeParent=1;resizeParentMax=0;resizeLast=0;collapsible=1;marginBottom=0;fontSize=12;" vertex="1" parent="1">
          <mxGeometry x="-56.5" y="1868" width="240" height="70" as="geometry" />
        </mxCell>
        <mxCell id="zCFs2bRSD1R6RlgsWCKW-78" value="" style="line;strokeWidth=1;fillColor=none;align=left;verticalAlign=middle;spacingTop=-1;spacingLeft=3;spacingRight=3;rotatable=0;labelPosition=right;points=[];portConstraint=eastwest;strokeColor=inherit;fontSize=12;" vertex="1" parent="zCFs2bRSD1R6RlgsWCKW-76">
          <mxGeometry y="26" width="240" height="8" as="geometry" />
        </mxCell>
        <mxCell id="zCFs2bRSD1R6RlgsWCKW-79" value="+ Find Parking Space();" style="text;strokeColor=none;fillColor=none;align=left;verticalAlign=top;spacingLeft=4;spacingRight=4;overflow=hidden;rotatable=0;points=[[0,0.5],[1,0.5]];portConstraint=eastwest;fontSize=12;" vertex="1" parent="zCFs2bRSD1R6RlgsWCKW-76">
          <mxGeometry y="34" width="240" height="36" as="geometry" />
        </mxCell>
        <mxCell id="zCFs2bRSD1R6RlgsWCKW-80" value="NearToElevatorParkingStrategy" style="swimlane;fontStyle=1;align=center;verticalAlign=top;childLayout=stackLayout;horizontal=1;startSize=26;horizontalStack=0;resizeParent=1;resizeParentMax=0;resizeLast=0;collapsible=1;marginBottom=0;fontSize=12;" vertex="1" parent="1">
          <mxGeometry x="263.5" y="1868" width="220" height="70" as="geometry" />
        </mxCell>
        <mxCell id="zCFs2bRSD1R6RlgsWCKW-81" value="" style="line;strokeWidth=1;fillColor=none;align=left;verticalAlign=middle;spacingTop=-1;spacingLeft=3;spacingRight=3;rotatable=0;labelPosition=right;points=[];portConstraint=eastwest;strokeColor=inherit;fontSize=12;" vertex="1" parent="zCFs2bRSD1R6RlgsWCKW-80">
          <mxGeometry y="26" width="220" height="8" as="geometry" />
        </mxCell>
        <mxCell id="zCFs2bRSD1R6RlgsWCKW-82" value="+ Find Parking Space();" style="text;strokeColor=none;fillColor=none;align=left;verticalAlign=top;spacingLeft=4;spacingRight=4;overflow=hidden;rotatable=0;points=[[0,0.5],[1,0.5]];portConstraint=eastwest;fontSize=12;" vertex="1" parent="zCFs2bRSD1R6RlgsWCKW-80">
          <mxGeometry y="34" width="220" height="36" as="geometry" />
        </mxCell>
        <mxCell id="zCFs2bRSD1R6RlgsWCKW-83" value="DefaultParkingStrategy" style="swimlane;fontStyle=1;align=center;verticalAlign=top;childLayout=stackLayout;horizontal=1;startSize=26;horizontalStack=0;resizeParent=1;resizeParentMax=0;resizeLast=0;collapsible=1;marginBottom=0;fontSize=12;" vertex="1" parent="1">
          <mxGeometry x="103.5" y="1968" width="240" height="70" as="geometry" />
        </mxCell>
        <mxCell id="zCFs2bRSD1R6RlgsWCKW-84" value="" style="line;strokeWidth=1;fillColor=none;align=left;verticalAlign=middle;spacingTop=-1;spacingLeft=3;spacingRight=3;rotatable=0;labelPosition=right;points=[];portConstraint=eastwest;strokeColor=inherit;fontSize=12;" vertex="1" parent="zCFs2bRSD1R6RlgsWCKW-83">
          <mxGeometry y="26" width="240" height="8" as="geometry" />
        </mxCell>
        <mxCell id="zCFs2bRSD1R6RlgsWCKW-85" value="+ Find Parking Space();" style="text;strokeColor=none;fillColor=none;align=left;verticalAlign=top;spacingLeft=4;spacingRight=4;overflow=hidden;rotatable=0;points=[[0,0.5],[1,0.5]];portConstraint=eastwest;fontSize=12;" vertex="1" parent="zCFs2bRSD1R6RlgsWCKW-83">
          <mxGeometry y="34" width="240" height="36" as="geometry" />
        </mxCell>
        <mxCell id="zCFs2bRSD1R6RlgsWCKW-86" value="Extends" style="endArrow=block;endSize=16;endFill=0;html=1;rounded=0;fontSize=12;entryX=0.438;entryY=1.073;entryDx=0;entryDy=0;entryPerimeter=0;exitX=0.459;exitY=-0.034;exitDx=0;exitDy=0;exitPerimeter=0;" edge="1" parent="1" source="zCFs2bRSD1R6RlgsWCKW-83" target="zCFs2bRSD1R6RlgsWCKW-75">
          <mxGeometry width="160" relative="1" as="geometry">
            <mxPoint x="59.120000000000005" y="1896.58" as="sourcePoint" />
            <mxPoint x="143.5000000000001" y="1768" as="targetPoint" />
          </mxGeometry>
        </mxCell>
        <mxCell id="zCFs2bRSD1R6RlgsWCKW-87" value="Extends" style="endArrow=block;endSize=16;endFill=0;html=1;rounded=0;fontSize=12;entryX=0.438;entryY=1.073;entryDx=0;entryDy=0;entryPerimeter=0;exitX=0.358;exitY=-0.007;exitDx=0;exitDy=0;exitPerimeter=0;" edge="1" parent="1" source="zCFs2bRSD1R6RlgsWCKW-80">
          <mxGeometry width="160" relative="1" as="geometry">
            <mxPoint x="263.58000000000015" y="1903.7199999999998" as="sourcePoint" />
            <mxPoint x="263.5" y="1737.998" as="targetPoint" />
          </mxGeometry>
        </mxCell>
        <mxCell id="zCFs2bRSD1R6RlgsWCKW-88" value="Extends" style="endArrow=block;endSize=16;endFill=0;html=1;rounded=0;fontSize=12;entryX=0.159;entryY=1.11;entryDx=0;entryDy=0;entryPerimeter=0;exitX=0.661;exitY=-0.007;exitDx=0;exitDy=0;exitPerimeter=0;" edge="1" parent="1" source="zCFs2bRSD1R6RlgsWCKW-76" target="zCFs2bRSD1R6RlgsWCKW-75">
          <mxGeometry width="160" relative="1" as="geometry">
            <mxPoint x="223.66000000000008" y="1915.62" as="sourcePoint" />
            <mxPoint x="223.57999999999993" y="1749.898" as="targetPoint" />
          </mxGeometry>
        </mxCell>
        <mxCell id="zCFs2bRSD1R6RlgsWCKW-89" value="" style="endArrow=diamondThin;endFill=1;endSize=24;html=1;rounded=0;fontSize=12;entryX=0.514;entryY=1.036;entryDx=0;entryDy=0;exitX=0.5;exitY=0;exitDx=0;exitDy=0;entryPerimeter=0;" edge="1" parent="1" source="zCFs2bRSD1R6RlgsWCKW-72" target="zCFs2bRSD1R6RlgsWCKW-64">
          <mxGeometry width="160" relative="1" as="geometry">
            <mxPoint x="302.2000000000003" y="1216.6200000000001" as="sourcePoint" />
            <mxPoint x="753.4999999999995" y="1216.656" as="targetPoint" />
          </mxGeometry>
        </mxCell>
        <mxCell id="zCFs2bRSD1R6RlgsWCKW-90" value="" style="endArrow=diamondThin;endFill=1;endSize=24;html=1;rounded=0;fontSize=12;entryX=0.477;entryY=1.026;entryDx=0;entryDy=0;exitX=0.5;exitY=0;exitDx=0;exitDy=0;entryPerimeter=0;" edge="1" parent="1" source="zCFs2bRSD1R6RlgsWCKW-72" target="zCFs2bRSD1R6RlgsWCKW-66">
          <mxGeometry width="160" relative="1" as="geometry">
            <mxPoint x="233.5" y="1688" as="sourcePoint" />
            <mxPoint x="-6.880000000000109" y="1545.636" as="targetPoint" />
          </mxGeometry>
        </mxCell>
        <mxCell id="zCFs2bRSD1R6RlgsWCKW-91" value="Vehicle" style="swimlane;fontStyle=1;align=center;verticalAlign=top;childLayout=stackLayout;horizontal=1;startSize=26;horizontalStack=0;resizeParent=1;resizeParentMax=0;resizeLast=0;collapsible=1;marginBottom=0;fontSize=12;" vertex="1" parent="1">
          <mxGeometry x="471" y="846" width="160" height="78" as="geometry" />
        </mxCell>
        <mxCell id="zCFs2bRSD1R6RlgsWCKW-92" value="+ VehicleNo: String&#xa;+ VehicleType: Enum" style="text;strokeColor=none;fillColor=none;align=left;verticalAlign=top;spacingLeft=4;spacingRight=4;overflow=hidden;rotatable=0;points=[[0,0.5],[1,0.5]];portConstraint=eastwest;fontSize=12;" vertex="1" parent="zCFs2bRSD1R6RlgsWCKW-91">
          <mxGeometry y="26" width="160" height="44" as="geometry" />
        </mxCell>
        <mxCell id="zCFs2bRSD1R6RlgsWCKW-93" value="" style="line;strokeWidth=1;fillColor=none;align=left;verticalAlign=middle;spacingTop=-1;spacingLeft=3;spacingRight=3;rotatable=0;labelPosition=right;points=[];portConstraint=eastwest;strokeColor=inherit;fontSize=12;" vertex="1" parent="zCFs2bRSD1R6RlgsWCKW-91">
          <mxGeometry y="70" width="160" height="8" as="geometry" />
        </mxCell>
        <mxCell id="zCFs2bRSD1R6RlgsWCKW-95" value="&amp;lt;&amp;lt;Enum&amp;gt;&amp;gt;&lt;br&gt;VehicleType" style="swimlane;fontStyle=1;align=center;verticalAlign=middle;childLayout=stackLayout;horizontal=1;startSize=29;horizontalStack=0;resizeParent=1;resizeParentMax=0;resizeLast=0;collapsible=0;marginBottom=0;html=1;fontSize=12;" vertex="1" parent="1">
          <mxGeometry x="726.5" y="820" width="140" height="80" as="geometry" />
        </mxCell>
        <mxCell id="zCFs2bRSD1R6RlgsWCKW-97" value="Twowheeler;&lt;br&gt;Fourwheeler;" style="text;html=1;strokeColor=none;fillColor=none;align=left;verticalAlign=middle;spacingLeft=4;spacingRight=4;overflow=hidden;rotatable=0;points=[[0,0.5],[1,0.5]];portConstraint=eastwest;fontSize=12;" vertex="1" parent="zCFs2bRSD1R6RlgsWCKW-95">
          <mxGeometry y="29" width="140" height="51" as="geometry" />
        </mxCell>
        <mxCell id="zCFs2bRSD1R6RlgsWCKW-98" value="" style="endArrow=diamondThin;endFill=1;endSize=24;html=1;rounded=0;fontSize=12;entryX=0.546;entryY=1;entryDx=0;entryDy=0;exitX=0.466;exitY=-0.011;exitDx=0;exitDy=0;exitPerimeter=0;entryPerimeter=0;" edge="1" parent="1" source="zCFs2bRSD1R6RlgsWCKW-37">
          <mxGeometry width="160" relative="1" as="geometry">
            <mxPoint x="333.0999999999999" y="1178.91" as="sourcePoint" />
            <mxPoint x="557.3600000000001" y="924" as="targetPoint" />
          </mxGeometry>
        </mxCell>
        <mxCell id="zCFs2bRSD1R6RlgsWCKW-99" value="Ticket" style="swimlane;fontStyle=1;align=center;verticalAlign=top;childLayout=stackLayout;horizontal=1;startSize=26;horizontalStack=0;resizeParent=1;resizeParentMax=0;resizeLast=0;collapsible=1;marginBottom=0;fontSize=12;" vertex="1" parent="1">
          <mxGeometry x="163.5" y="820" width="176.5" height="188" as="geometry" />
        </mxCell>
        <mxCell id="zCFs2bRSD1R6RlgsWCKW-100" value="+ EntryTime: DateTime&#xa;+ Vehicle: Vehicle&#xa;+ Spot : ParkingSpot&#xa;" style="text;strokeColor=none;fillColor=none;align=left;verticalAlign=top;spacingLeft=4;spacingRight=4;overflow=hidden;rotatable=0;points=[[0,0.5],[1,0.5]];portConstraint=eastwest;fontSize=12;" vertex="1" parent="zCFs2bRSD1R6RlgsWCKW-99">
          <mxGeometry y="26" width="176.5" height="84" as="geometry" />
        </mxCell>
        <mxCell id="zCFs2bRSD1R6RlgsWCKW-101" value="" style="line;strokeWidth=1;fillColor=none;align=left;verticalAlign=middle;spacingTop=-1;spacingLeft=3;spacingRight=3;rotatable=0;labelPosition=right;points=[];portConstraint=eastwest;strokeColor=inherit;fontSize=12;" vertex="1" parent="zCFs2bRSD1R6RlgsWCKW-99">
          <mxGeometry y="110" width="176.5" height="8" as="geometry" />
        </mxCell>
        <mxCell id="zCFs2bRSD1R6RlgsWCKW-102" value="+ method(type): type" style="text;strokeColor=none;fillColor=none;align=left;verticalAlign=top;spacingLeft=4;spacingRight=4;overflow=hidden;rotatable=0;points=[[0,0.5],[1,0.5]];portConstraint=eastwest;fontSize=12;" vertex="1" parent="zCFs2bRSD1R6RlgsWCKW-99">
          <mxGeometry y="118" width="176.5" height="70" as="geometry" />
        </mxCell>
      </root>
    </mxGraphModel>
  </diagram>
</mxfile>
